<?xml version="1.0" encoding="UTF-8" standalone="no"?>
<svg
   xmlns:dc="http://purl.org/dc/elements/1.1/"
   xmlns:cc="http://creativecommons.org/ns#"
   xmlns:rdf="http://www.w3.org/1999/02/22-rdf-syntax-ns#"
   xmlns:svg="http://www.w3.org/2000/svg"
   xmlns="http://www.w3.org/2000/svg"
   xmlns:sodipodi="http://sodipodi.sourceforge.net/DTD/sodipodi-0.dtd"
   xmlns:inkscape="http://www.inkscape.org/namespaces/inkscape"
   id="Layer_1"
   enable-background="new 0 0 718.645 338.135"
   xml:space="preserve"
   viewBox="0 0 718.645 338.135"
   version="1.1"
   y="0px"
   x="0px"
   sodipodi:docname="icon.svg"
   inkscape:version="1.0.1 (3bc2e813f5, 2020-09-07)"><defs
   id="defs41" /><sodipodi:namedview
   pagecolor="#ffffff"
   bordercolor="#666666"
   borderopacity="1"
   objecttolerance="10"
   gridtolerance="10"
   guidetolerance="10"
   inkscape:pageopacity="0"
   inkscape:pageshadow="2"
   inkscape:window-width="1920"
   inkscape:window-height="1007"
   id="namedview39"
   showgrid="false"
   inkscape:zoom="1.932804"
   inkscape:cx="268.0044"
   inkscape:cy="100.59015"
   inkscape:window-x="0"
   inkscape:window-y="0"
   inkscape:window-maximized="1"
   inkscape:current-layer="Layer_1"
   inkscape:document-rotation="0" />
<g
   id="g34">
	<path
   d="m705.76 169.15c-10.409-4.248-21.62-12.303-32.136-16.972l-70.165-33.204-1.92-0.557c5.594 18.36 11.471 37.244 15.749 56.229 27.093 17.026 56.923 31.298 80.521 51.567-11.453-6.664-21.196-15.372-33.242-22.036-15.476-7.881-31.05-17.972-46.973-25.302 1.655 12.653 1.881 24.927-3.692 36.56-1.892 2.542-4.134 4.288-6.27 6.449 16.726 11.738 30.971 25.429 46.084 37.857-16.381-10.928-30.763-24.59-49.02-35.342-21.34 10.345-43.875 3.324-61.544-9.223-13.156-9.344-25.204-22.546-26.29-40.089-20.815-11.465-42.3-20.827-64.336-28.273 6.092 14.966 14.489 29.666 15.757 46.719 21.624 11.116 43.025 23.171 64.155 37.086l40.949 31.55 0.244 0.978c10.895 8.584 21.044 18.378 29.632 29.023-21.776-23.697-48.867-43.109-76.281-61.986-18.393-11.912-38.064-22.911-58.426-31.365-0.986 6.187-5.611 11.49-11.728 13.152-17.946 6.09-37.673-3.405-49.156-17.341-3.974-5.248-7.038-11.612-4.859-18.395 0.245-3.175 2.729-3.935 4.34-6.421-21.587-7.997-43.457-14.154-65.478-19.668-1.68 3.978 3.272 11.356-3.375 13.311-13.488 3.052-25.991-5.428-34.12-15.435-1.326-1.159-0.377-4.506-3.037-3.849-9.997-0.196-19.641-1.362-29.568-1.271 1.917 5.318 4.775 10.852 7.527 15.949 50.212 9.654 100.51 32.802 145.7 62.861 44.928 31.452 87.667 63.608 121.82 103.08-23.655-23.519-49.066-46.308-76.723-66.178-55.021-43.354-121.23-80.96-188.22-93.575 1.108 5.667 3.198 12.278-2.083 16.116-8.503 6.415-19.612 1.152-28.381-2.46-5.699-3.186-10.23-8.896-10.009-15.777-72.871-1.646-150.32 15.952-221.27 35.803-2.556 1.681-5.737 2.614-8.603 4.219 7.627-5.755 16.827-10.567 24.284-17.021 4.336-4.642 11.122-6.03 16.121-9.799 8.547-9.842 20.584-15.205 33.833-18.651 18.064-19.334 45.898-25.65 66.234-41.843 22.138-11.882 47.032-18.666 73.045-24.528l-0.484-1.954-22.71-25.101c10.75 5.644 17.617 18.341 28.302 26.083 19.992-2.588 40.247-8.96 60.66-11.058l0.529-0.875c-7.46-11.508-17.591-21.167-23.652-33.617-0.518-2.696 1.969-5.245 4.062-6.356 14.308-5.788 27.986-11.705 42.811-15.387 5.346 0.007 8.554 5.149 12.396 8.059 12.107 12.878 25.196 25.515 35.907 38.748 10.489 0.358 21.981-1.16 32.683-0.553-4.288-5.315-8.014-11.964-13.437-17.005l-0.13-1.744c32.067-13.163 67.608-11.745 100.44-11.734 32.225 1.803 64.195 5.588 94.726 18.497 3.629 4.447 4.004 11.332 6.621 16.473 6.164 14.057 9.753 25.499 15.628 39.626 37.41 15.49 70.97 35.22 106.56 55.93z"
   id="path2" />
	<path
   d="m588.72 160.06c-50.645-26.912-103.84-44.441-157.59-54.562l-10.498-17.728c53.764-1.182 107.71 11.557 157.48 36.764 4.49 11.5 8.77 22.76 10.61 35.52z"
   fill="#FFFFFF"
   id="path4" />
	<path
   d="m589.7 180.16c-13.399-15.085-34.633-28.823-55.154-25.955-7.938 2.724-15.007 8.33-17.288 16.471-21.618-10.512-44.502-20.721-66.932-27.919-4.559-11.194-10.166-21.828-16.131-32.078 52.901 9.725 105.8 26.585 154.9 53.889 1 5.25 0.47 10.28 0.6 15.6z"
   fill="#FFFFFF"
   id="path6" />
	<path
   d="m448.63 181.34c-10.021-8.654-23.886-17.236-37.726-13.798-23.166-9.538-46.818-15.1-70.5-21.394-2.224-8.952-6.546-16.185-10.521-23.818l22.362 2.763c1.595 10.597 11.022 18.049 21.252 21.011 6.087 2.934 13.807 2.949 19.818-0.919 3.397-3.672 4.525-8.705 3.801-13.422 13.204 2.958 26.482 6.194 39.546 10.379 5.58 12.87 10.8 24.94 11.97 39.2z"
   fill="#FFFFFF"
   id="path8" />
	<path
   d="m434.18 136.37c-12.814-2.605-25.603-7.451-38.178-9.075-2.157-8.673-5.05-15.532-8.99-23.011 11.151 1.238 22.224 2.202 33.131 4.24 5.58 8.7 9.28 18.18 14.04 27.84z"
   fill="#FFFFFF"
   id="path10" />
	<path
   d="m383.91 98.964c-4.945-9.167-11.438-17.355-17.747-25.44 10.798-0.156 21.637-0.769 32.188 0.465 7.464 9.137 13.388 19.25 19.494 29.466-11.17-2.58-22.71-2.38-33.93-4.496z"
   fill="#FFFFFF"
   id="path12" />
	<path
   d="m379.79 122.41c-6.318-4.513-14.637-9.873-22.777-5.625l-3.678 3.734-25.825-1.755c-2.937-5.802-6.701-10.807-10.082-16.056 18.632-0.916 36.841 0.053 55.157 0.854 3.207 4.547 4.49 10.316 6.651 15.424l0.56 3.44z"
   fill="#FFFFFF"
   id="path14" />
	<path
   d="m369.86 98.594c-17.854-0.76-36.694-0.686-55.29-0.228l-13.148-18.859c17.304-2.072 36.428-5.189 54.253-5.156 5.73 6.892 10.12 15.605 14.19 24.243z"
   fill="#FFFFFF"
   id="path16" />
	<path
   d="m353.31 70.185c-17.965 0.606-36.181 3.79-54.396 6.382-2.585-3.812-5.929-7.136-7.498-11.653 6.582-4.003 14.477-6.268 21.895-9.296 7.375-2.578 15.216-5.71 22.972-6.153 6.99 5.991 12.08 13.333 17.04 20.72z"
   fill="#FFFFFF"
   id="path18" />
	<path
   d="m324.4 139.14c-5.869-3.89-12.815-7.361-19.675-4.469-2.309 1.466-2.662 4.812-3.187 6.877-10.376-2.319-21.744-0.834-31.845-2.042l-10.601-15.184c19.684-2.065 39.403-3.993 58.482-2.498 2.35 5.8 5.52 10.8 6.84 17.31z"
   fill="#FFFFFF"
   id="path20" />
	<path
   d="m315.52 117.73c-19.399 0.218-39.144 0.218-58.657 3.579l-11.127-13.713c20.21-2.94 41.707-4.274 61.91-4.237 2.41 4.89 6.1 9.03 7.88 14.37z"
   fill="#FFFFFF"
   id="path22" />
	<path
   d="m242.98 103.68l-9.175-9.451c19.542-4.407 39.653-9.548 59.687-12.004 3.767 5.606 7.985 10.637 11.227 16.52-20.46 0.762-41.05 2.755-61.74 4.935z"
   fill="#FFFFFF"
   id="path24" />
	<path
   d="m237.97 157.04c-67.357 2.621-136.17 13.182-200.92 33.425 5.703-6.328 14.378-8.473 22.589-11.258l40.329-11.056 69.883-14.541c30.072-4.494 60.731-8.992 90.189-9.924l6.069 13.042c-9.17 0.21-18.17-4.38-28.14 0.32z"
   fill="#FFFFFF"
   id="path26" />
	<path
   d="m226.63 143.08c-59.639 6.8-115.17 19.992-174.37 36.928 21.984-20.315 56.14-23.891 85.758-33.777 36.085-9.556 74.16-15.303 110.87-21.148 2.859 4.336 5.954 9.655 8.954 14.549-9.92 2.47-21 0.91-31.21 3.45z"
   fill="#FFFFFF"
   id="path28" />
	<path
   d="m207.01 128.65l-68.432 15.665c-16.775 3.575-30.906 8.27-45.873 13.175 29.71-24.454 65.167-35.347 105.27-43.672 13.81-2.39 26.187-4.569 39.678-5.248 3.244 4.088 6.734 8.569 9.415 13.393l-40.07 6.68z"
   fill="#FFFFFF"
   id="path30" />
	<path
   d="m147.21 122.86c18.435-12.447 42.704-17.588 64.354-24.895l17.197-2.489 6.49 8.783c-29.95 4.32-59.53 10.19-88.04 18.6z"
   fill="#FFFFFF"
   id="path32" />
</g>
<metadata
   id="metadata36"><rdf:RDF><cc:Work><dc:format>image/svg+xml</dc:format><dc:type
         rdf:resource="http://purl.org/dc/dcmitype/StillImage" /><cc:license
         rdf:resource="http://creativecommons.org/licenses/publicdomain/" /><dc:publisher><cc:Agent
           rdf:about="http://openclipart.org/"><dc:title>Openclipart</dc:title></cc:Agent></dc:publisher><dc:title /></cc:Work><cc:License
       rdf:about="http://creativecommons.org/licenses/publicdomain/"><cc:permits
         rdf:resource="http://creativecommons.org/ns#Reproduction" /><cc:permits
         rdf:resource="http://creativecommons.org/ns#Distribution" /><cc:permits
         rdf:resource="http://creativecommons.org/ns#DerivativeWorks" /></cc:License></rdf:RDF></metadata><path
   d="m 51.861329,260.30067 v -68.29724 h 38.163312 v 58.73669 h 41.242189 v -58.73669 h 30.80134 l -0.33065,1.53675 c -0.6424,2.98511 -11.90843,58.32111 -13.27937,65.22361 -0.76469,3.85074 -1.2407,7.16713 -1.05787,7.37007 0.18284,0.20293 7.71995,1.49893 16.7491,2.88 l 16.41668,2.51117 2.50341,-3.24972 c 7.06774,-9.17435 19.08065,-9.33042 26.01734,-0.33806 9.0919,11.78527 1.19672,30.18647 -12.92213,30.11635 -5.00995,-0.0256 -9.02133,-2.06993 -12.78781,-6.52091 l -2.98121,-3.52302 -16.39518,2.57796 c -9.01753,1.41798 -16.53306,2.73097 -16.70155,2.91793 -0.6426,0.71301 2.65638,9.69235 5.30618,14.4423 4.86851,8.72735 10.73582,14.27422 19.31946,18.26352 2.18312,1.01465 4.08476,1.96623 4.22568,2.11462 0.14105,0.14841 -9.89994,0.26973 -22.31358,0.26973 H 131.26681 V 278.05551 H 90.024615 v 50.54022 h -38.16331 z"
   fill="#fff"
   stroke="#ffffff"
   stroke-width="0.266485"
   id="path6-6"
   style="fill:#000000;fill-opacity:1;stroke:#000000;stroke-opacity:0" /><path
   d="m 219.27548,328.23524 c 0.33339,-0.33261 2.07218,-1.11855 3.86384,-1.74639 15.27205,-5.35162 27.03537,-25.78727 27.04849,-46.99092 0.008,-12.24382 -3.40802,-21.76481 -10.84537,-30.2263 -5.05039,-5.74629 -10.41967,-9.40467 -17.54728,-11.95622 -4.68399,-1.67674 -6.00034,-1.83176 -15.95344,-1.87897 -10.17498,-0.049 -11.19549,0.0671 -16.43838,1.8693 -3.07441,1.05652 -6.02106,2.09977 -6.54824,2.31825 -0.61906,0.2569 -0.85862,0.0658 -0.67673,-0.54142 0.15486,-0.5164 1.1879,-5.20641 2.29565,-10.42237 l 2.0141,-9.48346 h 57.96029 v -28.44625 l 29.83383,0.3437 c 27.8117,0.32037 30.18008,0.44301 34.93774,1.80945 13.23312,3.79935 21.02584,11.45272 25.01505,24.56799 1.47301,4.84259 1.68479,6.69898 1.73129,15.17364 0.0396,7.20803 -0.2319,10.79251 -1.07081,14.13878 -3.65298,14.57187 -13.37657,24.78723 -27.27143,28.65042 -5.10887,1.42009 -17.20082,2.31811 -31.74846,2.35758 l -11.00797,0.0297 v 51.03867 h -23.1007 c -13.27744,0 -22.84289,-0.25729 -22.49433,-0.60501 z m 68.61916,-79.82784 c 4.44871,-1.42797 8.44135,-5.58985 9.5214,-9.92494 2.02777,-8.13932 -2.17078,-16.37086 -9.49833,-18.62243 -1.2697,-0.39027 -6.97494,-0.90757 -12.67839,-1.14977 l -10.36985,-0.44031 v 32.15686 l 9.78839,-0.45616 c 5.91483,-0.27574 11.153,-0.89416 13.23652,-1.56286 z"
   fill="#fff"
   stroke="#fff"
   stroke-width="2.4331"
   id="path8-2"
   style="fill:#000000;fill-opacity:1;stroke:#000000;stroke-width:0.663398;stroke-miterlimit:4;stroke-dasharray:none;stroke-opacity:0" /><path
   style="fill:#000000;stroke:#000000;stroke-width:1.25879;stroke-opacity:0;fill-opacity:0"
   d="m 223.70414,326.55593 c 5.29356,-2.31095 7.65073,-3.90001 11.47951,-7.73873 16.34055,-16.38298 20.16463,-46.72238 8.16726,-64.79719 -4.47608,-6.74349 -10.69947,-12.10053 -17.94817,-15.44964 -6.54057,-3.02193 -9.49145,-3.46453 -21.55383,-3.23286 l -10.60635,0.2037 -5.16886,1.8701 c -2.84287,1.02856 -5.25203,1.78692 -5.3537,1.68525 -0.16,-0.16 3.17059,-16.51853 3.87071,-19.01139 0.2383,-0.84848 2.07411,-0.90542 29.19287,-0.90542 h 28.93859 l -4.1e-4,-14.09869 -4e-4,-14.09868 27.39868,0.32529 c 15.06927,0.17892 28.97669,0.49429 30.90536,0.70083 11.11678,1.19051 21.83979,7.72546 26.99526,16.4518 2.37398,4.01828 4.6107,10.73317 5.31452,15.95477 0.76228,5.65537 0.2677,18.81859 -0.86276,22.96206 -3.06394,11.23024 -10.43395,20.39566 -20.16223,25.07396 -7.57163,3.64117 -13.90717,4.53132 -35.82878,5.034 l -14.09869,0.32331 v 25.26958 25.26959 l -22.37681,-0.006 -22.37682,-0.006 4.07505,-1.77901 z M 274.213,250.21966 c 12.95503,-0.77577 16.01863,-1.63074 19.7616,-5.51496 2.76404,-2.86835 4.01362,-5.97491 4.02377,-10.00346 0.0108,-4.27313 -0.62828,-6.54334 -2.71594,-9.64824 -3.42195,-5.08933 -6.4178,-5.97957 -22.49223,-6.68371 l -8.40748,-0.3683 v 16.36957 c 0,12.75319 0.14288,16.36853 0.64673,16.36493 0.3557,-0.003 4.4883,-0.23467 9.18355,-0.51583 z"
   id="path850" /><path
   style="fill:#000000;fill-opacity:0;stroke:#000000;stroke-width:1.25879;stroke-opacity:0"
   d="m 223.70414,326.55593 c 5.29356,-2.31095 7.65073,-3.90001 11.47951,-7.73873 16.34055,-16.38298 20.16463,-46.72238 8.16726,-64.79719 -4.47608,-6.74349 -10.69947,-12.10053 -17.94817,-15.44964 -6.54057,-3.02193 -9.49145,-3.46453 -21.55383,-3.23286 l -10.60635,0.2037 -5.16886,1.8701 c -2.84287,1.02856 -5.25203,1.78692 -5.3537,1.68525 -0.16,-0.16 3.17059,-16.51853 3.87071,-19.01139 0.2383,-0.84848 2.07411,-0.90542 29.19287,-0.90542 h 28.93859 l -4.1e-4,-14.09869 -4e-4,-14.09868 27.39868,0.32529 c 15.06927,0.17892 28.97669,0.49429 30.90536,0.70083 11.11678,1.19051 21.83979,7.72546 26.99526,16.4518 2.37398,4.01828 4.6107,10.73317 5.31452,15.95477 0.76228,5.65537 0.2677,18.81859 -0.86276,22.96206 -3.06394,11.23024 -10.43395,20.39566 -20.16223,25.07396 -7.57163,3.64117 -13.90717,4.53132 -35.82878,5.034 l -14.09869,0.32331 v 25.26958 25.26959 l -22.37681,-0.006 -22.37682,-0.006 4.07505,-1.77901 z M 274.213,250.21966 c 12.95503,-0.77577 16.01863,-1.63074 19.7616,-5.51496 2.76404,-2.86835 4.01362,-5.97491 4.02377,-10.00346 0.0108,-4.27313 -0.62828,-6.54334 -2.71594,-9.64824 -3.42195,-5.08933 -6.4178,-5.97957 -22.49223,-6.68371 l -8.40748,-0.3683 v 16.36957 c 0,12.75319 0.14288,16.36853 0.64673,16.36493 0.3557,-0.003 4.4883,-0.23467 9.18355,-0.51583 z"
   id="path852" /><path
   style="fill:#c00000;fill-opacity:0;stroke:#000000;stroke-width:1.25879;stroke-opacity:0"
   d="m 52.773062,260.05301 v -67.77718 h 18.62579 18.625789 v 29.23214 29.23215 h 20.954009 20.95402 v -29.23215 -29.23214 h 15.06019 15.0602 l -0.28866,1.16411 c -0.61319,2.47294 -13.27281,65.00534 -13.8847,68.58375 -0.53182,3.11014 -0.52496,3.85671 0.0386,4.20503 0.78108,0.48273 3.19293,0.91081 20.48985,3.63674 l 12.41719,1.95691 3.29818,-3.58044 c 3.95851,-4.29729 7.30965,-6.1593 11.69584,-6.49862 10.47893,-0.81067 19.45547,10.95101 16.58979,21.73706 -1.65343,6.22331 -4.36424,9.83508 -9.19261,12.24784 -2.56406,1.28128 -3.79291,1.57543 -6.56431,1.57132 -4.8812,-0.007 -8.19049,-1.66307 -12.49065,-6.24984 l -3.38973,-3.61566 -14.45998,2.33655 c -7.95299,1.2851 -15.35333,2.49203 -16.44518,2.68206 -1.09187,0.19003 -2.12005,0.69689 -2.28485,1.12636 -0.71755,1.86989 3.4929,12.41792 7.09428,17.77263 4.27132,6.35079 9.16057,10.70089 16.31894,14.51941 l 3.62168,1.93192 -21.34205,0.0136 -21.34207,0.0136 V 302.73711 277.64403 H 110.97865 90.024641 v 25.09308 25.09308 H 71.398852 52.773062 Z"
   id="path854" /><path
   style="fill:#c00000;fill-opacity:0;stroke:#000000;stroke-width:1.25879;stroke-opacity:0"
   d="m 52.773062,260.23779 v -68.03587 h 18.62579 18.625789 v 29.49083 29.49084 h 20.954009 20.95402 v -29.49084 -29.49083 h 15.06019 15.0602 l -0.28739,1.16411 c -1.54087,6.24155 -13.86792,68.52803 -13.94765,70.47511 l -0.10517,2.56857 3.49105,0.64446 c 1.92007,0.35446 9.46966,1.57819 16.77687,2.71941 l 13.28583,2.07495 0.76532,-1.14892 c 0.42092,-0.63191 2.08414,-2.45526 3.69605,-4.05189 6.51968,-6.45792 14.5404,-6.76051 21.06782,-0.79482 4.88326,4.46301 7.0329,10.56394 5.84667,16.59346 -1.77747,9.03469 -8.13344,14.95534 -16.00206,14.90608 -5.026,-0.0315 -7.65877,-1.34345 -12.17069,-6.06503 l -3.68383,-3.85501 -16.01913,2.57025 c -8.81052,1.41364 -16.34025,2.6912 -16.73272,2.83903 -1.03672,0.39047 -0.51258,3.31745 1.50844,8.42362 4.46923,11.29171 11.01365,18.93869 20.58459,24.05256 l 4.26187,2.27716 -6.61206,0.33722 c -3.63663,0.18547 -13.18929,0.33816 -21.22813,0.33932 l -14.61607,0.002 V 302.92189 277.57012 H 110.97865 90.024641 v 25.35177 25.35177 H 71.398852 52.773062 Z"
   id="path856" /><path
   style="fill:#c00000;fill-opacity:0;stroke:#000000;stroke-width:1.25879;stroke-opacity:0"
   d="m 52.773062,260.23779 v -68.03587 h 18.62579 18.625789 v 29.49083 29.49084 h 20.954009 20.95402 v -29.49084 -29.49083 h 15.06019 15.0602 l -0.28739,1.16411 c -1.54087,6.24155 -13.86792,68.52803 -13.94765,70.47511 l -0.10517,2.56857 3.49105,0.64446 c 1.92007,0.35446 9.46966,1.57819 16.77687,2.71941 l 13.28583,2.07495 0.76532,-1.14892 c 0.42092,-0.63191 2.08414,-2.45526 3.69605,-4.05189 6.51968,-6.45792 14.5404,-6.76051 21.06782,-0.79482 4.88326,4.46301 7.0329,10.56394 5.84667,16.59346 -1.77747,9.03469 -8.13344,14.95534 -16.00206,14.90608 -5.026,-0.0315 -7.65877,-1.34345 -12.17069,-6.06503 l -3.68383,-3.85501 -16.01913,2.57025 c -8.81052,1.41364 -16.34025,2.6912 -16.73272,2.83903 -1.03672,0.39047 -0.51258,3.31745 1.50844,8.42362 4.46923,11.29171 11.01365,18.93869 20.58459,24.05256 l 4.26187,2.27716 -6.61206,0.33722 c -3.63663,0.18547 -13.18929,0.33816 -21.22813,0.33932 l -14.61607,0.002 V 302.92189 277.57012 H 110.97865 90.024641 v 25.35177 25.35177 H 71.398852 52.773062 Z"
   id="path858" /><path
   style="fill:#c00000;fill-opacity:0;stroke:#000000;stroke-width:1.25879;stroke-opacity:0"
   d="m 52.773062,260.23779 v -68.03587 h 18.62579 18.625789 v 29.49083 29.49084 h 20.954009 20.95402 v -29.49084 -29.49083 h 15.06019 15.0602 l -0.28739,1.16411 c -1.54087,6.24155 -13.86792,68.52803 -13.94765,70.47511 l -0.10517,2.56857 3.49105,0.64446 c 1.92007,0.35446 9.46966,1.57819 16.77687,2.71941 l 13.28583,2.07495 0.76532,-1.14892 c 0.42092,-0.63191 2.08414,-2.45526 3.69605,-4.05189 6.51968,-6.45792 14.5404,-6.76051 21.06782,-0.79482 4.88326,4.46301 7.0329,10.56394 5.84667,16.59346 -1.77747,9.03469 -8.13344,14.95534 -16.00206,14.90608 -5.026,-0.0315 -7.65877,-1.34345 -12.17069,-6.06503 l -3.68383,-3.85501 -16.01913,2.57025 c -8.81052,1.41364 -16.34025,2.6912 -16.73272,2.83903 -1.03672,0.39047 -0.51258,3.31745 1.50844,8.42362 4.46923,11.29171 11.01365,18.93869 20.58459,24.05256 l 4.26187,2.27716 -6.61206,0.33722 c -3.63663,0.18547 -13.18929,0.33816 -21.22813,0.33932 l -14.61607,0.002 V 302.92189 277.57012 H 110.97865 90.024641 v 25.35177 25.35177 H 71.398852 52.773062 Z"
   id="path860" /><path
   style="fill:#c00000;fill-opacity:0;stroke:#000000;stroke-width:1.25879;stroke-opacity:0"
   d="m 226.09638,328.2998 -5.94991,-0.28483 3.62169,-1.47123 c 15.53116,-6.30917 26.62754,-26.08571 26.64217,-47.48304 0.0137,-20.01402 -11.27673,-36.11504 -29.74647,-42.42081 -3.39701,-1.15978 -4.34386,-1.23649 -15.2628,-1.23649 h -11.64112 l -5.40087,1.92873 c -2.97048,1.06079 -5.49273,1.83686 -5.605,1.72459 -0.11227,-0.11227 0.71144,-4.47253 1.83047,-9.68947 l 2.0346,-9.48534 29.05152,-0.13365 29.05151,-0.13365 v -14.22373 -14.22373 l 16.6856,0.0268 c 24.08162,0.0387 43.39639,0.77003 47.2112,1.78761 1.70737,0.45543 5.27986,1.89614 7.93887,3.20158 8.16085,4.00655 13.5174,10.25732 16.6984,19.48603 2.08601,6.05191 2.71712,11.57732 2.37222,20.76898 -0.33654,8.96878 -1.34196,13.26992 -4.53204,19.3877 -4.07924,7.82301 -9.11333,12.79807 -16.78623,16.58945 -7.49726,3.70459 -13.23576,4.52202 -35.0527,4.99315 l -14.87477,0.32121 v 25.53068 25.53068 l -16.16822,-0.1032 c -8.89252,-0.0568 -18.84567,-0.23137 -22.11812,-0.38804 z m 49.41008,-78.16081 c 12.49565,-0.7903 16.34414,-2.1568 19.88583,-7.06099 1.96034,-2.71448 2.62033,-4.9227 2.62033,-8.76716 0,-6.03752 -3.16796,-11.57469 -7.90947,-13.82468 -2.23076,-1.05857 -7.43612,-1.68708 -18.08903,-2.18412 l -7.6314,-0.35607 v 16.36012 16.36011 l 1.42281,-0.002 c 0.78254,-0.001 5.14796,-0.23743 9.70093,-0.52538 z"
   id="path862" /><path
   style="fill:#c00000;fill-opacity:0;stroke:#000000;stroke-width:1.25879;stroke-opacity:0"
   d="m 52.255679,260.16388 v -68.03587 h 18.62579 18.625789 v 29.49083 29.49084 h 20.954012 20.95401 v -29.49084 -29.49083 h 15.00411 c 8.48886,0 15.00411,0.20115 15.00411,0.46325 0,0.25478 -3.1294,15.81104 -6.95422,34.56947 -3.82482,18.75842 -7.11033,35.28299 -7.30113,36.72126 l -0.34689,2.61504 4.32617,0.79579 c 2.37939,0.43768 10.01081,1.66766 16.95871,2.73328 l 12.63255,1.9375 1.58119,-2.01949 c 4.42734,-5.65457 8.67582,-8.09874 14.07731,-8.09874 6.03888,0 11.61633,3.96754 14.60089,10.38639 1.13574,2.44264 1.36618,3.6755 1.37079,7.33398 0.005,3.86112 -0.19271,4.81767 -1.6192,7.839 -3.17761,6.73022 -7.94457,9.98155 -14.66151,9.99993 -3.35326,0.009 -4.2603,-0.19977 -6.67726,-1.53821 -1.53829,-0.85186 -4.09934,-3.0053 -5.69121,-4.78542 -1.97094,-2.20401 -3.27636,-3.23669 -4.09178,-3.23688 -1.09268,-2.6e-4 -27.9402,4.25512 -31.26833,4.95609 -1.97078,0.41508 -1.866,1.74881 0.64116,8.1613 4.73636,12.11404 10.89478,19.31741 21.28357,24.89491 l 4.33246,2.326 -21.60074,0.009 -21.60075,0.009 V 302.84798 277.49621 H 110.46127 89.507258 v 25.35177 25.35177 H 70.881469 52.255679 Z"
   id="path864" /><path
   style="fill:#98565b;fill-opacity:0;stroke:#000000;stroke-width:1.25879;stroke-opacity:0"
   d="m 226.09638,328.2998 -5.94991,-0.28483 3.62169,-1.47123 c 15.53116,-6.30917 26.62754,-26.08571 26.64217,-47.48304 0.0137,-20.01402 -11.27673,-36.11504 -29.74647,-42.42081 -3.39701,-1.15978 -4.34386,-1.23649 -15.2628,-1.23649 h -11.64112 l -5.40087,1.92873 c -2.97048,1.06079 -5.49273,1.83686 -5.605,1.72459 -0.11227,-0.11227 0.71144,-4.47253 1.83047,-9.68947 l 2.0346,-9.48534 29.05152,-0.13365 29.05151,-0.13365 v -14.22373 -14.22373 l 16.6856,0.0268 c 24.08162,0.0387 43.39639,0.77003 47.2112,1.78761 1.70737,0.45543 5.27986,1.89614 7.93887,3.20158 8.16085,4.00655 13.5174,10.25732 16.6984,19.48603 2.08601,6.05191 2.71712,11.57732 2.37222,20.76898 -0.33654,8.96878 -1.34196,13.26992 -4.53204,19.3877 -4.07924,7.82301 -9.11333,12.79807 -16.78623,16.58945 -7.49726,3.70459 -13.23576,4.52202 -35.0527,4.99315 l -14.87477,0.32121 v 25.53068 25.53068 l -16.16822,-0.1032 c -8.89252,-0.0568 -18.84567,-0.23137 -22.11812,-0.38804 z m 49.41008,-78.16081 c 12.49565,-0.7903 16.34414,-2.1568 19.88583,-7.06099 1.96034,-2.71448 2.62033,-4.9227 2.62033,-8.76716 0,-6.03752 -3.16796,-11.57469 -7.90947,-13.82468 -2.23076,-1.05857 -7.43612,-1.68708 -18.08903,-2.18412 l -7.6314,-0.35607 v 16.36012 16.36011 l 1.42281,-0.002 c 0.78254,-0.001 5.14796,-0.23743 9.70093,-0.52538 z"
   id="path866" /><path
   style="font-variation-settings:normal;opacity:1;vector-effect:none;fill:#000000;fill-opacity:1;stroke:#000000;stroke-width:0.137875;stroke-linecap:butt;stroke-linejoin:miter;stroke-miterlimit:4;stroke-dasharray:none;stroke-dashoffset:0;stroke-opacity:0;stop-color:#000000;stop-opacity:1"
   d="m 51.996988,260.20282 v -68.03587 h 18.884481 18.88448 v 29.49083 29.49083 h 20.954011 20.95402 v -29.49083 -29.49083 h 15.0041 c 8.25226,0 15.00411,0.059 15.00411,0.13121 0,0.0722 -3.14228,15.56518 -6.98285,34.42892 -3.84056,18.86374 -7.12759,35.52924 -7.3045,37.03445 l -0.32165,2.73674 3.81217,0.63586 c 2.09669,0.34972 9.63272,1.55615 16.74674,2.68095 l 12.93457,2.04509 1.81084,-2.207 c 4.73764,-5.77408 8.28716,-7.80964 13.71065,-7.86275 2.96501,-0.029 4.15665,0.22725 6.57212,1.41341 7.39403,3.63096 11.36735,12.16685 9.47057,20.3456 -1.03409,4.45894 -2.64001,7.20572 -5.95582,10.18692 -3.33837,3.00148 -6.7773,4.19718 -11.07844,3.85192 -4.35573,-0.34963 -7.18483,-1.90772 -11.27474,-6.20942 l -3.4708,-3.65052 -12.05069,1.91215 c -21.22192,3.36742 -21.10489,3.3411 -21.10489,4.74529 0,3.48804 5.40514,14.9854 9.51321,20.23569 3.48118,4.4491 8.03608,8.161 13.83432,11.27394 l 4.33246,2.326 -21.60074,0.009 -21.60074,0.009 V 303.14561 278.05253 H 110.71996 89.765949 v 25.09308 25.09308 H 70.881469 51.996988 Z"
   id="path1245" /><path
   style="font-variation-settings:normal;opacity:1;vector-effect:none;fill:#000000;fill-opacity:1;stroke:#000000;stroke-width:0.137875;stroke-linecap:butt;stroke-linejoin:miter;stroke-miterlimit:4;stroke-dasharray:none;stroke-dashoffset:0;stroke-opacity:0;stop-color:#000000;stop-opacity:1"
   d="m 224.81922,328.36909 -4.89885,-0.17222 3.87869,-1.68613 c 9.39388,-4.08369 15.68664,-10.61446 20.95688,-21.74954 7.53837,-15.92724 7.3779,-35.93019 -0.39482,-49.21483 -3.16168,-5.40375 -10.94707,-12.91392 -16.19521,-15.62268 -8.37825,-4.32434 -9.39862,-4.53033 -22.50616,-4.54353 l -11.64112,-0.0117 -5.63724,1.95105 c -3.10048,1.07307 -5.69334,1.88795 -5.76192,1.81084 -0.0686,-0.0771 0.82377,-4.50563 1.983,-9.84114 l 2.10769,-9.70093 h 28.87666 28.87666 v -14.22803 -14.22804 l 15.13345,0.0286 c 8.3234,0.0157 22.00171,0.23105 30.39625,0.4785 13.16797,0.38815 15.79345,0.60189 19.12902,1.55729 6.24386,1.7884 11.67002,4.88541 15.82808,9.03396 4.29817,4.28835 6.27291,7.56947 8.5849,14.26422 1.65693,4.79792 1.69786,5.13095 1.8862,15.34703 0.22793,12.36345 -0.42505,15.94684 -4.36142,23.93463 -2.00127,4.06102 -3.16058,5.63425 -6.86266,9.3129 -6.43361,6.39289 -12.44749,9.53722 -20.75216,10.85013 -5.56386,0.87962 -18.27352,1.57921 -28.8441,1.58771 l -9.95962,0.008 v 25.61046 25.61046 l -17.46168,-0.10738 c -9.60392,-0.0591 -19.66616,-0.18488 -22.36052,-0.2796 z m 57.92311,-78.83572 c 5.15133,-0.60272 7.88245,-1.69485 10.77629,-4.30926 3.25212,-2.93809 4.47809,-5.92967 4.46297,-10.89044 -0.0189,-6.18534 -2.40046,-10.65937 -7.15847,-13.44775 -2.42287,-1.41989 -6.91438,-2.03617 -19.06769,-2.61626 l -7.11401,-0.33956 v 16.40827 16.40828 l 6.85532,-0.34981 c 3.77043,-0.19239 8.83095,-0.58096 11.24559,-0.86347 z"
   id="path1247" /></svg>
